<mxfile host="app.diagrams.net" modified="2021-04-20T20:09:31.757Z" agent="5.0 (Windows NT 10.0; Win64; x64) AppleWebKit/537.36 (KHTML, like Gecko) Chrome/89.0.4389.128 Safari/537.36" etag="zwEWhPtfWEEbvwBCHPNI" version="14.6.3" type="github">
  <diagram id="fJMiuqyReGBsOHFr2Yt3" name="Page-1">
    <mxGraphModel dx="1422" dy="762" grid="1" gridSize="10" guides="1" tooltips="1" connect="1" arrows="1" fold="1" page="1" pageScale="1" pageWidth="827" pageHeight="1169" math="0" shadow="0">
      <root>
        <mxCell id="0" />
        <mxCell id="1" parent="0" />
        <mxCell id="mJJsZSxixyouEm4TAXhM-1" value="" style="rounded=0;html=1;jettySize=auto;orthogonalLoop=1;fontSize=11;endArrow=block;endFill=0;endSize=8;strokeWidth=1;shadow=0;labelBackgroundColor=none;edgeStyle=orthogonalEdgeStyle;" edge="1" parent="1" source="mJJsZSxixyouEm4TAXhM-2" target="mJJsZSxixyouEm4TAXhM-5">
          <mxGeometry relative="1" as="geometry" />
        </mxCell>
        <mxCell id="mJJsZSxixyouEm4TAXhM-2" value="Go to change password page" style="rounded=1;whiteSpace=wrap;html=1;fontSize=12;glass=0;strokeWidth=1;shadow=0;" vertex="1" parent="1">
          <mxGeometry x="160" y="80" width="120" height="40" as="geometry" />
        </mxCell>
        <mxCell id="mJJsZSxixyouEm4TAXhM-3" value="Yes" style="rounded=0;html=1;jettySize=auto;orthogonalLoop=1;fontSize=11;endArrow=block;endFill=0;endSize=8;strokeWidth=1;shadow=0;labelBackgroundColor=none;edgeStyle=orthogonalEdgeStyle;entryX=0.5;entryY=0;entryDx=0;entryDy=0;" edge="1" parent="1" source="mJJsZSxixyouEm4TAXhM-5" target="mJJsZSxixyouEm4TAXhM-19">
          <mxGeometry y="20" relative="1" as="geometry">
            <mxPoint as="offset" />
            <mxPoint x="220" y="280" as="targetPoint" />
            <Array as="points">
              <mxPoint x="450" y="230" />
              <mxPoint x="450" y="230" />
            </Array>
          </mxGeometry>
        </mxCell>
        <mxCell id="mJJsZSxixyouEm4TAXhM-4" value="No" style="edgeStyle=orthogonalEdgeStyle;rounded=0;html=1;jettySize=auto;orthogonalLoop=1;fontSize=11;endArrow=block;endFill=0;endSize=8;strokeWidth=1;shadow=0;labelBackgroundColor=none;" edge="1" parent="1" source="mJJsZSxixyouEm4TAXhM-5" target="mJJsZSxixyouEm4TAXhM-6">
          <mxGeometry y="10" relative="1" as="geometry">
            <mxPoint as="offset" />
          </mxGeometry>
        </mxCell>
        <mxCell id="mJJsZSxixyouEm4TAXhM-5" value="Is auth user ?" style="rhombus;whiteSpace=wrap;html=1;shadow=0;fontFamily=Helvetica;fontSize=12;align=center;strokeWidth=1;spacing=6;spacingTop=-4;" vertex="1" parent="1">
          <mxGeometry x="400" y="60" width="100" height="80" as="geometry" />
        </mxCell>
        <mxCell id="mJJsZSxixyouEm4TAXhM-6" value="Go to login page" style="rounded=1;whiteSpace=wrap;html=1;fontSize=12;glass=0;strokeWidth=1;shadow=0;" vertex="1" parent="1">
          <mxGeometry x="560" y="80" width="120" height="40" as="geometry" />
        </mxCell>
        <mxCell id="mJJsZSxixyouEm4TAXhM-7" value="No" style="rounded=0;html=1;jettySize=auto;orthogonalLoop=1;fontSize=11;endArrow=block;endFill=0;endSize=8;strokeWidth=1;shadow=0;labelBackgroundColor=none;edgeStyle=orthogonalEdgeStyle;" edge="1" parent="1" source="mJJsZSxixyouEm4TAXhM-9" target="mJJsZSxixyouEm4TAXhM-10">
          <mxGeometry x="0.3333" y="20" relative="1" as="geometry">
            <mxPoint as="offset" />
          </mxGeometry>
        </mxCell>
        <mxCell id="mJJsZSxixyouEm4TAXhM-8" value="Yes" style="edgeStyle=orthogonalEdgeStyle;rounded=0;html=1;jettySize=auto;orthogonalLoop=1;fontSize=11;endArrow=block;endFill=0;endSize=8;strokeWidth=1;shadow=0;labelBackgroundColor=none;entryX=0.5;entryY=0;entryDx=0;entryDy=0;" edge="1" parent="1" source="mJJsZSxixyouEm4TAXhM-9" target="mJJsZSxixyouEm4TAXhM-15">
          <mxGeometry y="10" relative="1" as="geometry">
            <mxPoint as="offset" />
            <mxPoint x="400" y="730" as="targetPoint" />
          </mxGeometry>
        </mxCell>
        <mxCell id="mJJsZSxixyouEm4TAXhM-9" value="Confirmation ?" style="rhombus;whiteSpace=wrap;html=1;shadow=0;fontFamily=Helvetica;fontSize=12;align=center;strokeWidth=1;spacing=6;spacingTop=-4;" vertex="1" parent="1">
          <mxGeometry x="380" y="440" width="140" height="100" as="geometry" />
        </mxCell>
        <mxCell id="mJJsZSxixyouEm4TAXhM-10" value="Message for user" style="rounded=1;whiteSpace=wrap;html=1;fontSize=12;glass=0;strokeWidth=1;shadow=0;" vertex="1" parent="1">
          <mxGeometry x="610" y="470" width="120" height="40" as="geometry" />
        </mxCell>
        <mxCell id="mJJsZSxixyouEm4TAXhM-36" style="edgeStyle=orthogonalEdgeStyle;rounded=0;orthogonalLoop=1;jettySize=auto;html=1;exitX=0.5;exitY=1;exitDx=0;exitDy=0;" edge="1" parent="1" source="mJJsZSxixyouEm4TAXhM-15" target="mJJsZSxixyouEm4TAXhM-34">
          <mxGeometry relative="1" as="geometry" />
        </mxCell>
        <mxCell id="mJJsZSxixyouEm4TAXhM-15" value="Enter password" style="rounded=1;whiteSpace=wrap;html=1;fontSize=12;glass=0;strokeWidth=1;shadow=0;" vertex="1" parent="1">
          <mxGeometry x="390" y="610" width="120" height="40" as="geometry" />
        </mxCell>
        <mxCell id="mJJsZSxixyouEm4TAXhM-16" style="edgeStyle=orthogonalEdgeStyle;rounded=0;orthogonalLoop=1;jettySize=auto;html=1;endArrow=block;endFill=0;" edge="1" parent="1" source="mJJsZSxixyouEm4TAXhM-17" target="mJJsZSxixyouEm4TAXhM-2">
          <mxGeometry relative="1" as="geometry" />
        </mxCell>
        <mxCell id="mJJsZSxixyouEm4TAXhM-17" value="" style="ellipse;whiteSpace=wrap;html=1;aspect=fixed;" vertex="1" parent="1">
          <mxGeometry x="90" y="90" width="20" height="20" as="geometry" />
        </mxCell>
        <mxCell id="mJJsZSxixyouEm4TAXhM-18" value="" style="ellipse;whiteSpace=wrap;html=1;aspect=fixed;" vertex="1" parent="1">
          <mxGeometry x="640" y="750" width="20" height="20" as="geometry" />
        </mxCell>
        <mxCell id="mJJsZSxixyouEm4TAXhM-25" style="edgeStyle=orthogonalEdgeStyle;rounded=0;orthogonalLoop=1;jettySize=auto;html=1;entryX=0.5;entryY=0;entryDx=0;entryDy=0;" edge="1" parent="1" source="mJJsZSxixyouEm4TAXhM-19" target="mJJsZSxixyouEm4TAXhM-24">
          <mxGeometry relative="1" as="geometry" />
        </mxCell>
        <mxCell id="mJJsZSxixyouEm4TAXhM-19" value="Click to change passwrod button&amp;nbsp;" style="rounded=0;whiteSpace=wrap;html=1;" vertex="1" parent="1">
          <mxGeometry x="390" y="230" width="120" height="60" as="geometry" />
        </mxCell>
        <mxCell id="mJJsZSxixyouEm4TAXhM-26" style="edgeStyle=orthogonalEdgeStyle;rounded=0;orthogonalLoop=1;jettySize=auto;html=1;entryX=0.5;entryY=0;entryDx=0;entryDy=0;" edge="1" parent="1" source="mJJsZSxixyouEm4TAXhM-24" target="mJJsZSxixyouEm4TAXhM-9">
          <mxGeometry relative="1" as="geometry" />
        </mxCell>
        <mxCell id="mJJsZSxixyouEm4TAXhM-24" value="Send email confirmation" style="rounded=0;whiteSpace=wrap;html=1;" vertex="1" parent="1">
          <mxGeometry x="390" y="330" width="120" height="60" as="geometry" />
        </mxCell>
        <mxCell id="mJJsZSxixyouEm4TAXhM-35" style="edgeStyle=orthogonalEdgeStyle;rounded=0;orthogonalLoop=1;jettySize=auto;html=1;entryX=0;entryY=0.5;entryDx=0;entryDy=0;" edge="1" parent="1" source="mJJsZSxixyouEm4TAXhM-34" target="mJJsZSxixyouEm4TAXhM-18">
          <mxGeometry relative="1" as="geometry" />
        </mxCell>
        <mxCell id="mJJsZSxixyouEm4TAXhM-39" style="edgeStyle=orthogonalEdgeStyle;rounded=0;orthogonalLoop=1;jettySize=auto;html=1;" edge="1" parent="1" source="mJJsZSxixyouEm4TAXhM-34">
          <mxGeometry relative="1" as="geometry">
            <mxPoint x="450" y="880" as="targetPoint" />
          </mxGeometry>
        </mxCell>
        <mxCell id="mJJsZSxixyouEm4TAXhM-34" value="Is new password correctly ?" style="rhombus;whiteSpace=wrap;html=1;shadow=0;fontFamily=Helvetica;fontSize=12;align=center;strokeWidth=1;spacing=6;spacingTop=-4;" vertex="1" parent="1">
          <mxGeometry x="380" y="710" width="140" height="100" as="geometry" />
        </mxCell>
        <mxCell id="mJJsZSxixyouEm4TAXhM-37" value="&lt;span style=&quot;color: rgb(0, 0, 0); font-family: helvetica; font-size: 11px; font-style: normal; font-weight: 400; letter-spacing: normal; text-align: center; text-indent: 0px; text-transform: none; word-spacing: 0px; background-color: rgb(248, 249, 250); display: inline; float: none;&quot;&gt;Yes&lt;/span&gt;" style="text;whiteSpace=wrap;html=1;" vertex="1" parent="1">
          <mxGeometry x="560" y="720" width="40" height="30" as="geometry" />
        </mxCell>
        <mxCell id="mJJsZSxixyouEm4TAXhM-38" value="&lt;span style=&quot;color: rgb(0 , 0 , 0) ; font-family: &amp;#34;helvetica&amp;#34; ; font-size: 11px ; font-style: normal ; font-weight: 400 ; letter-spacing: normal ; text-align: center ; text-indent: 0px ; text-transform: none ; word-spacing: 0px ; background-color: rgb(248 , 249 , 250) ; display: inline ; float: none&quot;&gt;No&lt;/span&gt;" style="text;whiteSpace=wrap;html=1;" vertex="1" parent="1">
          <mxGeometry x="470" y="830" width="40" height="30" as="geometry" />
        </mxCell>
        <mxCell id="mJJsZSxixyouEm4TAXhM-40" value="Message for user" style="rounded=1;whiteSpace=wrap;html=1;fontSize=12;glass=0;strokeWidth=1;shadow=0;" vertex="1" parent="1">
          <mxGeometry x="390" y="880" width="120" height="40" as="geometry" />
        </mxCell>
      </root>
    </mxGraphModel>
  </diagram>
</mxfile>
